<svg xmlns="http://www.w3.org/2000/svg" width="2557" height="2000" class="kuda-phoneDebit--illustration" preserveAspectRatio="xMidYMid slice" style="width:100%;height:100%;transform:translate3d(0,0,0)">
  <defs>
    <clipPath id="a">
      <path d="M0 0h2557v2000H0z"/>
    </clipPath>
    <clipPath id="b">
      <path d="M0 0h2557v2000H0z"/>
    </clipPath>
    <clipPath id="h">
      <path d="M0 0h2557v2000H0z"/>
    </clipPath>
    <clipPath id="i">
      <path d="M0 0h2557v2000H0z"/>
    </clipPath>
    <clipPath id="d">
      <path d="M0 0h2557v2000H0z"/>
    </clipPath>
    <clipPath id="f">
      <path d="M0 0h2557v2000H0z"/>
    </clipPath>
    <mask id="c" mask-type="alpha">
      <path fill="#DFE2FF" d="M0-932.112c516.13202 0 934.539 417.32 934.539 932.112 0 514.79102-418.40698 932.112-934.539 932.112S-934.539 514.79102-934.539 0c0-514.792 418.40698-932.112 934.539-932.112z" transform="translate(1444.458 997.901)" style="display:block"/>
    </mask>
    <mask id="j" mask-type="alpha">
      <path fill="#DBF8FF" d="M-.001-397.077C-219.3-397.077-397.07599-219.3-397.07599 0S-219.3 397.077-.001 397.077c219.3 0 397.07699-177.777 397.07699-397.077S219.29899-397.077-.001-397.077z" transform="translate(501.24002 496.50699)" style="display:block"/>
    </mask>
    <mask id="e" mask-type="alpha">
      <path fill="#DBF8FF" d="M-104.138-224.627c124.058-57.515 271.25-3.57 328.765 120.487 57.514 124.058 3.57 271.251-120.488 328.766-124.057 57.515-271.25 3.57-328.764-120.487-57.51501-124.058-3.571-271.251 120.487-328.766z" transform="translate(2020.58997 1706.79602)" style="display:block"/>
    </mask>
    <mask id="g" mask-type="alpha">
      <path fill="#DBF8FF" d="M-104.138-224.627c124.058-57.515 271.25-3.57 328.765 120.487 57.514 124.058 3.57 271.251-120.488 328.766-124.057 57.515-271.25 3.57-328.764-120.487-57.51501-124.058-3.571-271.251 120.487-328.766z" transform="translate(2020.58997 1706.79602)" style="display:block"/>
    </mask>
  </defs>
  <g clip-path="url(#a)">
    <path fill="#DFE2FF" d="M0-932.112c516.13202 0 934.539 417.32 934.539 932.112 0 514.79102-418.40698 932.112-934.539 932.112S-934.539 514.79102-934.539 0c0-514.792 418.40698-932.112 934.539-932.112z" transform="translate(1444.458 997.901)" style="display:block"/>
    <g clip-path="url(#b)" style="display:block">
      <g mask="url(#c)" style="display:block">
        <path fill="#5F36A8" d="m1391.54197 1045.282.146-.145-10.39-45.863-5.266-23.293c-1.758-7.622-8.928-12.603-16.099-10.845l-20.783 4.689-24.148 5.423c-7.17 1.612-11.564 9.229-9.952 16.846v.15l16.831 71.792 62.345 59.044h31.464l-24.148-77.798zm-71.855-40.148c-3.078 1.466-6.733 0-8.199-3.219-1.462-3.223-.292-6.888 2.781-8.355 3.073-1.466 6.588 0 8.05 3.223 1.466 3.224.291 7.036-2.632 8.351z"/>
        <path fill="#9C79CD" d="M677.04198 1691.207s-87.372 52.16-139.474 53.772c-52.095 1.612-59.853 0-59.853 0s0 23.148 19.31701 28.716c19.318 5.569 70.686 5.569 70.686 5.569s36.734 4.544 46.832 18.463c10.098 13.772 35.858 13.771 35.858 13.771s24.876-2.785 26.634-35.894c1.757-33.115 48.735-90.111 48.735-90.111l-35.857-28.569-12.878 34.283z"/>
        <path fill="#9C79CD" d="m781.97198 1795.82798-61.90299 59.485s-17.274 11.719-13.614 38.095c3.662 26.371-12.437 49.815-46.978 43.664l-34.683-6.156s-123.815 6.885-126.155 7.181c-2.486.291-26.051 0-26.051 0s-22.244-15.828 27.221-25.789c49.47-9.962 150.157-53.771 157.182-80.584 7.025-26.667 68.636-127.617 68.636-127.617l56.345 91.721z"/>
        <path fill="#FFBA00" d="M2241.95398 1055.333s265.914 527.75-142.39902 793.82401c0 0-130.24798 154.28397-681.25699 142.55997-427.19397-9.08295-455.143-55.96497-455.143-55.96497s-153.521-86.595-100.542-332.59501c53.12098-245.999 736.427-204.098 736.427-204.098l277.18601-447.166s172.98499-131.42797 365.728 103.44z"/>
        <path d="M1933.60095 1156.128s21.803-173.178-84.444-183.145c0 0-53.713-68.714-40.688-179.189 0 0-22.827-61.686-53.708-75.604-30.881-13.918-46.687-15.967-50.639-65.636 0 0-20.92398 52.743-64.54001 64.613l44.78601 138.312 68.34401 41.022-34.833 80.584-19.904-12.89s-108.295-151.205-79.467-250.839c28.832-99.484 104.348-137.286 164.93499-127.322 60.593 9.962 116.349 4.983 158.061 176.113 0 9.966 19.9 69.597 102.445 34.871 82.54101-34.726 118.247-72.671 168.00799 7.035-5.12198-7.914 9.953 8.937-9.95198 53.77-19.904 44.834 32.779 50.548 32.779 50.548s72.59199 33.848 35.857 114.432c0 0-38.784 71.646-107.421 80.584-68.636 8.937-92.492-14.948-92.492-14.948s-19.904-23.88-48.732 12.015c-28.832 35.89701-34.832 51.723-88.395 55.674z"/>
        <path fill="#9C79CD" d="M1852.22495 970.19501s-35.124-42.78-37.76-118.237v-32.673l-60.296 47.766-4.972 27.692s-28.396 126.587-116.34899 184.461l-28.391 32.09 218.936 17.433 96.00699-88.055-67.175-70.477z"/>
        <path d="M1227.905 1567.98506s-295.48 116.184-393.09401 283.07c0 0-83.861-3.519-173.572-115.164 0 0 156.299-219.774 275.866-239.407 119.568-19.487 290.8 71.501 290.8 71.501z"/>
        <path fill="#40186C" d="M1734.857 1518.46202s-68.93302-133.477-213.81702-146.226c-144.886-12.602-295.48-43.663-536.81 59.777 0 0-117.228 40.295-322.99103 233.69299 0 0 22.53601 47.329 36.73102 44.839 41.41602-6.89 444.907-150.919 711.55101-99.047 235.65898 44.75701 325.33601-93.036 325.33601-93.036z"/>
        <path fill="#511B7B" d="M1694.60494 1016.791c148.691-115.747 72.297-160.284 72.297-160.284s-8.782 4.539-13.026 18.312c-6.145 19.929-9.509 63.587-59.271 141.972z"/>
        <path fill="#47D289" d="M1852.37005 974.00601s96.445-3.36899 79.322 186.95201c0 0-27.22 241.607-179.131 350.911 0 0-24.147 21.535-40.246 22.414l-127.034-151.206-6.291-32.818s15.952-50.839 8.485-86.885c-2.485-12.306-26.044-43.222-17.85-85.711 8.195-42.488 22.099-64.32 63.073-98.604l219.672-105.053z"/>
        <path fill="#9C79CD" d="M1861.29999 1010.485s69.36902 19.486 30.43802 120.728c-38.92902 101.246-115.76001 255.52401-311.86802 322.19002 0 0-57.224 10.694-110.792-84.541-53.562-95.23501-51.21599-92.74501-73.023-161.02301l-9.807-29.302s-45.078-42.635-58.39399-82.929c-13.31701-40.29-14.63601-70.763-14.63601-70.763l78.006 71.938s1.169-29.304-10.978-46.3c-12.146-16.997 30.294 9.671 35.27 18.316 13.759 23.44 14.493 107.689 14.493 107.689s116.052 155.163 133.028 156.333c38.198 2.781 52.685-30.624 115.472-100.805 28.832-32.381 99.954-188.568 121.90701-206.88 21.95299-18.31701 60.88399-14.651 60.88399-14.651zM1730.318 897.67401c-55.043 0-99.663-57.267-99.663-127.908 0-70.641 44.62-127.906 99.663-127.906s99.663 57.265 99.663 127.906-44.62 127.908-99.663 127.908z"/>
        <path fill="#40186C" d="M1692.41195 788.515c-1.17 0-2.05-1.022-2.05-2.047l.88-43.518c0-1.17.878-2.049 2.048-2.049s2.05 1.024 2.05 2.049l-.88 43.518c0 1.17-.873 2.047-2.048 2.047zM1725.63405 754.969c-1.17 0-2.049-1.023-2.049-2.048l.146-9.38c0-1.17.879-2.048 2.049-2.048 1.169 0 2.048 1.024 2.048 2.048l-.145 9.38c0 1.17-.879 2.048-2.049 2.048zM1660.65205 753.94001c-1.17 0-2.049-1.023-2.049-2.053l.152-9.375c0-1.175.873-2.052 2.047-2.052 1.17 0 2.049 1.023 2.049 2.052l-.145 9.375c0 1.175-.879 2.053-2.054 2.053zM1716.41296 844.19501c-.587 0-1.32-.29-1.611-.878-.588-.879-.292-2.194.587-2.781 10.244-6.593 17.997-16.853 21.366-28.135.291-1.024 1.461-1.61 2.485-1.314 1.025.291 1.612 1.465 1.32 2.49-3.66 12.307-12.001 23.442-22.977 30.472-.441 0-.733.146-1.17.146z"/>
        <path d="M2211.36603 806.401c-.292-.583-.734-1.024-1.025-1.607-.147-.587.001 0 1.025 1.607z"/>
        <path d="M1703.53296 655.045s-28.53598 60.218-71.12698 72.967c-6.582-3.812-5.121-16.409-11.854-20.221 30.444-93.477 103.468-129.08202 162.44898-119.411 60.587 9.961 116.348 4.981 158.055 176.115 0 9.962 19.906 69.593 102.446 34.866 81.958-34.575 117.81-72.083 166.984 5.278.587 1.903 6.879 19.778-8.929 55.383-19.89899 44.834 32.78502 50.693 32.78502 50.693s72.58798 33.848 35.857 114.43199c0 0-38.784 71.646-107.42101 80.584-68.637 8.937-92.492-14.949-92.492-14.949s-19.905-23.88-48.737 12.016c-28.828 35.89601-34.829 51.72401-88.396 55.68101 0 0 21.808-173.185-84.443-183.147 0 0-40.537-47.766-52.975-164.687 0 0-10.685-76.185-41.566-90.109-30.876-13.76801-46.68402-15.677-50.63601-65.491z"/>
      </g>
    </g>
    <g clip-path="url(#d)" style="display:block">
      <g mask="url(#e)" style="display:block">
        <g clip-path="url(#f)">
          <path fill="#DBF8FF" d="M-104.138-224.627c124.058-57.515 271.25-3.57 328.765 120.487 57.514 124.058 3.57 271.251-120.488 328.766-124.057 57.515-271.25 3.57-328.764-120.487-57.51501-124.058-3.571-271.251 120.487-328.766z" transform="translate(2020.58997 1706.79602)" style="display:block"/>
          <g mask="url(#g)" style="display:block">
            <path fill="#3ED286" d="M2167.52191 2032.47002v.015c.088 5.61099-4.423 10.189-10.029 10.248l-258.9 2.496c-5.597.054-10.171-4.434-10.223-10.03l-4.078-422.25201c-.05401-5.598 4.432-10.171 10.029-10.224l258.904-2.501c5.598-.053 10.171 4.434 10.22399 10.031l4.07301 422.217z"/>
            <path stroke="#41BB7A" d="M2167.52191 2032.47002v.015c.088 5.61099-4.423 10.189-10.029 10.248l-258.9 2.496c-5.597.054-10.171-4.434-10.223-10.03l-4.078-422.25201c-.05401-5.598 4.432-10.171 10.029-10.224l258.904-2.501c5.598-.053 10.171 4.434 10.22399 10.031l4.07301 422.217z" fill="none"/>
            <path fill="#58D695" d="M2165.3709 1605.538c-1.879-4.607-6.42801-7.83-11.715-7.776l-130.238 1.257-139.569 175.834 1.72799 178.877 82.579 93.226 152.673-1.476-160.678-181.383 205.22-258.559zM1894.2969 1600.296c-6.937.068-12.502 5.738-12.435 12.676l.943 97.532 48.018-110.562-36.526.354z"/>
            <path fill="#FFF" d="m2016.1939 1813.803.311 32.08-9.288.093-.048-4.699c-1.01 1.698-2.321 2.995-3.961 3.892-1.646.894-3.477 1.355-5.569 1.374-4.001.039-7.02-1.033-9.025-3.252-2.005-2.223-3.029-5.588-3.073-10.103l-.184-19.127 9.544-.093.189 19.313c.035 3.888 1.709 5.82 5.049 5.787 1.981-.02 3.588-.695 4.787-2.069 1.2-1.369 1.806-3.136 1.787-5.34l-.175-17.802 9.656-.093v.039zM2052.5899 1798.797l.453 46.727-9.438.092-.045-4.733c-.936 1.66-2.32 2.956-4.073 3.893-1.753.932-3.768 1.432-6.01 1.452-2.753.029-5.181-.646-7.36-2.059-2.18-1.374-3.85-3.374-5.088-5.898-1.232-2.559-1.85-5.452-1.884-8.753-.028-3.306.53-6.209 1.715-8.719 1.189-2.51 2.82-4.472 4.936-5.884 2.118-1.379 4.57-2.102 7.362-2.127 2.165-.024 4.115.399 5.883 1.301 1.771.898 3.179 2.137 4.15 3.743l-.184-18.943 9.583-.092zm-10.98 37.624c1.232-1.626 1.869-3.98 1.84-7.029-.029-3.01-.715-5.317-2.011-6.918-1.302-1.603-3.106-2.394-5.422-2.369-2.349.019-4.177.844-5.482 2.475-1.306 1.627-1.907 3.908-1.878 6.846.029 3.044.708 5.389 2.009 7.029 1.339 1.636 3.185 2.467 5.535 2.443 2.345-.025 4.137-.85 5.409-2.477zM2089.2149 1813.088l.311 32.085-9.433.093-.049-4.738c-.936 1.66-2.32 2.961-4.073 3.893-1.752.937-3.768 1.432-6.005 1.456-2.792.025-5.258-.611-7.399-1.951-2.141-1.335-3.811-3.228-5.049-5.748-1.233-2.485-1.85-5.379-1.883-8.685-.029-3.301.528-6.243 1.713-8.826 1.189-2.583 2.821-4.578 4.972-6.035 2.155-1.412 4.568-2.17 7.321-2.199 2.242-.019 4.266.438 6.034 1.413 1.772.937 3.18 2.243 4.15 3.889l-.043-4.554 9.433-.093zm-11.122 23.017c1.232-1.626 1.874-3.946 1.845-6.991-.03-3.048-.675-5.355-1.977-6.995-1.266-1.603-3.106-2.394-5.456-2.369-2.349.024-4.181.883-5.481 2.587-1.306 1.7-1.909 4.054-1.879 7.03.029 3.009.709 5.277 2.01 6.844 1.301 1.564 3.146 2.355 5.568 2.332 2.311-.02 4.141-.812 5.37-2.438zM1983.7749 1846.62501l-11.861.117-12.913-14.414.14 14.535-9.69.093-.456-47.169 9.689-.093.279 28.668 12.052-14.03 11.599-.112-13.613 15.701 14.774 16.704zM2097.5319 1845.06201c2.897-.029 5.229-2.398 5.199-5.302-.029-2.897-2.403-5.223-5.302-5.194-2.898.024-5.223 2.398-5.199 5.297.03 2.898 2.404 5.228 5.302 5.199zM2120.8289 1686.35501c.015-2.461-.495-5.723-1.442-8.941-.874-2.894-2-5.671-3.569-8.264-.596-.951-1.586-1.048-2.319-.858-.99.266-1.602 1.485-1.189 2.432.262.621.562 1.209.863 1.792 2.019 3.98 3.306 8.155 3.573 12.631.345 5.321-.306 10.5-2.423 15.405-.505 1.179-1.116 2.325-1.616 3.539-.539 1.217.242 2.567 1.529 2.704.626.067 1.214-.01 1.574-.603.325-.48.649-.922.902-1.441 2.85-5.462 4.335-11.274 4.117-18.396zm-8.252.704c-.117-1.062-.166-2.165-.327-3.228-.515-3.85-1.869-7.433-3.811-10.758-.446-.762-1.145-.975-1.951-.898-1.063.122-2.083 1.272-1.52 2.515.223.51.453 1.02.677 1.495 1.382 2.67 2.29 5.447 2.688 8.457.476 3.705.18 7.34-1.068 10.874-.574 1.588-1.329 3.137-1.975 4.719-.145.33-.288.699-.249 1.03.083.844.564 1.427 1.34 1.713.81.287 1.468.025 1.976-.606.365-.442.723-.962.976-1.476 2.232-4.355 3.292-8.953 3.244-13.837zm-8.472.744c.072-3.783-.914-7.152-2.744-10.253-.184-.365-.445-.695-.742-.948-.554-.544-1.661-.684-2.243-.31-.947.598-1.233 1.335-.859 2.287.227.621.562 1.242.864 1.825 2.058 4.204 2.392 8.496.781 12.879-.393 1.068-.893 2.103-1.364 3.171-.141.33-.285.699-.247.995.083.806.601 1.389 1.34 1.675.737.286 1.505.092 2.014-.5.218-.258.437-.588.617-.884 1.766-3.141 2.762-6.452 2.583-9.937zm-11.894-.141c.121 1.578-.267 3.01-1.098 4.34-.217.335-.398.704-.539 1.068-.287.811.015 1.655.791 2.234.626.47 1.471.465 2.093-.059.437-.369.835-.776 1.126-1.258 1.806-2.99 2.181-6.189 1.263-9.558-.417-1.535-1.127-2.962-2.205-4.127-.67-.728-1.587-.752-2.388-.233-.84.597-1.122 1.554-.675 2.432.151.292.301.622.485.874.821 1.315 1.206 2.743 1.147 4.287z"/>
            <path fill="#FFF" d="M2120.8439 1686.37501c.213 7.122-1.272 12.934-4.117 18.434-.253.514-.578.962-.908 1.442-.36.553-.947.67-1.573.602-1.321-.175-2.068-1.525-1.529-2.705.538-1.179 1.115-2.325 1.615-3.539 2.121-4.942 2.769-10.088 2.424-15.404-.302-4.476-1.588-8.65-3.573-12.632-.301-.587-.565-1.209-.861-1.791-.413-.952.201-2.17 1.186-2.432.733-.195 1.728-.092 2.319.854 1.569 2.593 2.701 5.374 3.57 8.263.985 3.184 1.456 6.447 1.447 8.908z"/>
            <path fill="#FFF" d="M2112.5719 1687.059c.048 4.846-.972 9.477-3.171 13.798-.252.515-.617 1.034-.976 1.475-.51.631-1.205.894-1.981.607-.806-.286-1.252-.906-1.334-1.712-.039-.33.101-.7.246-1.03.646-1.583 1.4-3.098 1.972-4.72 1.214-3.534 1.511-7.136 1.073-10.874-.397-3.01-1.307-5.791-2.69-8.456-.262-.476-.451-1.025-.674-1.5-.564-1.204.45-2.39 1.513-2.511.845-.083 1.51.132 1.958.899 1.975 3.359 3.335 6.908 3.811 10.757.049 1.102.131 2.2.253 3.267zM2104.1089 1687.79301c.18 3.452-.816 6.802-2.549 9.938-.18.334-.359.631-.617.888-.505.592-1.276.82-2.015.495-.771-.286-1.252-.869-1.335-1.675-.039-.33.141-.699.248-.995.427-1.068.971-2.102 1.365-3.17 1.606-4.383 1.271-8.675-.787-12.875-.301-.621-.597-1.209-.86-1.83-.378-.985-.092-1.684.86-2.282.617-.374 1.684-.276 2.238.306.296.292.524.622.748.947 1.791 3.141 2.776 6.471 2.704 10.253zM2092.1959 1687.647c.098-1.544-.32-2.97-1.175-4.247-.189-.291-.34-.582-.49-.879-.408-.874-.161-1.83.674-2.427.805-.558 1.724-.496 2.389.233 1.117 1.165 1.787 2.588 2.209 4.127.947 3.369.539 6.568-1.267 9.558-.291.481-.69.923-1.126 1.258-.655.52-1.461.529-2.093.058-.776-.577-1.077-1.456-.791-2.233.141-.369.319-.738.538-1.068.869-1.369 1.225-2.802 1.132-4.38z"/>
            <path fill="#40136E" d="m2037.6819 1633.079 15.82-.149-7.747-7.603-8.073 7.752z"/>
            <path fill="#EBC581" d="m2070.0429 1713.36801-.549-56.897c-.028-2.977-2.441-5.375-5.34-5.346l-34.653.33c-2.93701.029-5.26301 2.515-5.233 5.447l.548 56.898c.02999 2.976 2.438 5.374 5.34 5.344l34.654-.33c2.898-.028 5.262-2.475 5.233-5.446z"/>
            <path stroke="#C08329" stroke-width=".5" d="m2069.2569 1656.494.549 56.897c.023 2.827-2.229 5.127-4.943 5.152l-34.653.335c-2.719.024-5.015-2.229-5.044-5.054l-.549-56.897c-.024-2.792 2.19-5.127 4.943-5.152l34.653-.335c2.719-.062 5.015 2.19 5.044 5.054z" fill="none"/>
            <path fill="#EBC581" d="M2056.8529 1658.334c4.408-.038 8.001 3.559 8.045 8.04l.077 8.112 4.263-.044-.18-18.205c-.024-2.753-2.248-4.971-4.928-4.947l-9.874.097.063 6.865 2.534-.024v.106z"/>
            <path stroke="#C08329" stroke-width=".5" d="m2056.8679 1658.013-2.276.02-.065-6.312 9.583-.092c2.534-.024 4.647 2.083 4.671 4.652l.176 17.914-3.671.033-.078-7.854c-.044-4.548-3.602-8.224-8.048-8.326v-.039l-.292.004z" fill="none"/>
            <path fill="#EBC581" d="M2037.4439 1711.63c-4.408.039-8.001-3.559-8.045-8.039l-.078-8.113-4.256.044.173 18.205c.024 2.753 2.248 4.971 4.928 4.947l9.875-.097-.064-6.864-2.533.023v-.106z"/>
            <path stroke="#C08329" stroke-width=".5" d="m2037.4439 1711.95 2.271-.02.063 6.312-9.583.092c-2.529.024-4.646-2.082-4.67-4.651l-.169-17.914 3.703-.039.078 7.861c.044 4.548 3.602 8.223 8.049 8.325v.039l.258-.005z" fill="none"/>
            <path fill="#EBC581" d="M2029.0449 1666.781c-.044-4.476 3.48-8.146 7.884-8.189l2.534-.025-.067-6.864-9.875.097c-2.68.024-4.86 2.286-4.83 5.039l.174 18.206 4.258-.039-.078-8.225z"/>
            <path stroke="#C08329" stroke-width=".5" d="M2036.9239 1658.295c-4.554.043-8.224 3.86-8.18 8.481l.077 7.894-3.709.039-.174-17.914c-.025-2.607 2.048-4.718 4.583-4.742l9.578-.094.063 6.313-2.238.023z" fill="none"/>
            <path fill="#EBC581" d="M2065.2479 1703.202c.043 4.48-3.486 8.146-7.89 8.189l-2.534.025.068 6.865 9.875-.098c2.68-.024 4.859-2.286 4.834-5.039l-.178-18.205-4.258.038.083 8.225z"/>
            <path stroke="#C08329" stroke-width=".5" d="M2057.3769 1711.64401c4.549-.044 8.224-3.859 8.176-8.486l-.073-7.893 3.704-.034.174 17.913c.025 2.607-2.048 4.72-4.578 4.744l-9.583.091-.058-6.315 2.238-.02z" fill="none"/>
            <path fill="#EBC581" d="m2040.0169 1674.75801 14.06-.136-.156-16.113-.068-7.083-14.06.136.069 7.084.155 16.112z"/>
            <path stroke="#C08329" stroke-width=".5" d="m2053.6729 1658.557.15 15.822-13.505.131-.156-15.821-.063-6.791 13.507-.132.067 6.791z" fill="none"/>
            <path fill="#EBC581" d="m2054.3239 1695.172-14.06.137.157 16.04.072 7.121 14.059-.136-.074-7.122-.154-16.04z"/>
            <path stroke="#C08329" stroke-width=".5" d="m2040.6679 1711.344-.156-15.783 13.511-.131.151 15.782.068 6.865-13.511.131-.063-6.864z" fill="none"/>
            <path fill="#EBC581" d="m2024.8609 1675.32101.188 19.749 4.257-.044 10.331-9.972-10.519-9.776-4.257.043z"/>
            <path stroke="#C08329" stroke-width=".5" d="m2029.2059 1694.755-3.854.034-.185-19.196 3.854-.038 10.224 9.485-10.039 9.715z" fill="none"/>
            <path fill="#EBC581" d="m2054.6879 1684.934 10.521 9.772 4.257-.039-.189-19.749-4.258.044-10.331 9.972z"/>
            <path stroke="#C08329" stroke-width=".5" d="m2069.1739 1694.361-3.854.035-10.224-9.482 10.039-9.681 3.851-.033.188 19.161z" fill="none"/>
            <path fill="#EBC581" d="M2064.5339 1666.43601c-.039-4.219-3.487-7.675-7.638-7.636l-2.528.025.154 16.044c0 .107-.111.184-.184.184l-14.462.137c-.113.005-.185-.108-.185-.18l-.155-16.04-2.533.025c-4.147.038-7.532 3.557-7.488 7.781l.079 8.37 10.558 9.772c.111.107.111.258.005.291l-10.369 9.977.082 8.37c.039 4.224 3.486 7.675 7.638 7.636l2.533-.024-.155-16.04c0-.112.107-.184.18-.189l14.461-.136c.111-.005.185.107.19.179l.151 16.041 2.533-.024c4.152-.04 7.529-3.559 7.486-7.783l-.078-8.37-10.558-9.772c-.034-.034-.039-.107-.039-.146 0-.034 0-.111.039-.145l10.364-9.977-.081-8.37z"/>
            <path stroke="#C08329" stroke-width=".5" d="m2057.3669 1710.726-2.276.02-.156-15.783c0-.146-.073-.258-.145-.33-.078-.073-.19-.146-.335-.141l-14.463.136c-.146.005-.257.077-.33.151-.072.072-.146.184-.141.335l.151 15.782-2.278.019c-4 .04-7.335-3.305-7.374-7.378l-.082-8.258 10.258-9.865c.146-.078.185-.224.18-.37 0-.145-.073-.256-.151-.364l-10.481-9.704-.078-8.258c-.043-4.073 3.228-7.486 7.228-7.52l2.278-.025.155 15.783c0 .151.073.258.15.331.074.073.185.145.33.145l14.463-.141c.146 0 .257-.077.33-.15.073-.073.146-.185.141-.33l-.15-15.788 2.276-.02c4.001-.038 7.336 3.307 7.375 7.38l.082 8.263-10.297 9.898c-.106.151-.106.297-.106.33 0 .074.005.224.116.331l10.481 9.7.078 8.262c.043 4.113-3.228 7.521-7.229 7.559z" fill="none"/>
          </g>
        </g>
      </g>
    </g>
    <g clip-path="url(#h)" style="display:block">
      <g opacity=".31" style="display:block">
        <path fill="#DBF8FF" d="M828 262 429 866l823 86-424-690z" opacity="1"/>
      </g>
      <g clip-path="url(#i)" transform="translate(-8 -24)" style="display:block">
        <path fill="#DBF8FF" d="M-.001-397.077C-219.3-397.077-397.07599-219.3-397.07599 0S-219.3 397.077-.001 397.077c219.3 0 397.07699-177.777 397.07699-397.077S219.29899-397.077-.001-397.077z" transform="translate(501.24002 496.50699)" style="display:block"/>
        <g mask="url(#j)" style="display:block">
          <path fill="#5F36A8" d="m500.57995 487.24202.388-.388-27.552-121.617-13.97-61.77799c-4.657-20.205-23.672-33.416-42.686-28.75401l-55.105 12.43301-64.029 14.377c-19.014 4.275-30.65601 24.47899-26.387 44.68399v.389l44.626 190.388 165.312 156.587h83.432l-64.029-206.321zm-190.535-106.463c-8.148 3.886-17.851 0-21.731-8.548-3.881-8.549-.777-18.261 7.373-22.146 8.149-3.886 17.462-.00099 21.342 8.547 3.881 8.548.778 18.65-6.984 22.147z"/>
          <path fill="#9C79CD" d="M1738.72095 370.42102s183.937 51.67804 80.71496 320.16303c-103.22198 268.49199-306.95099 677.63598-826.94798 854.422 0 0-151.726 28.36596-293.756-224.19202-142.02697-252.55399-135.81701-245.952-193.64001-427.01499l-25.99896-77.709s-119.521-113.067-154.83405-219.921c-35.31299-106.852-38.80597-187.67002-38.80597-187.67002l206.83301 190.77802s3.10498-77.70899-29.104-122.781c-32.20801-45.07203 80.328 25.644 93.523 48.569 36.47397 62.16699 38.416 285.583 38.416 285.583s307.72799 411.473 352.74198 414.585c101.284 7.37899 139.7-81.21 306.174-267.322 76.448-85.871 265.04501-500.065 323.25299-548.634 58.20404-48.56897 161.43103-38.85602 161.43103-38.85602z"/>
        </g>
      </g>
    </g>
  </g>
</svg>
